<svg xmlns="http://www.w3.org/2000/svg"  viewBox="0 0 40 40" width="160px" height="160px" baseProfile="basic"><polygon fill="#c2e8ff" points="23.1,35.396 37.486,33.341 37.486,19.982 23.1,21.01"/><polygon fill="#8bb7f0" points="37.486,19.982 29.265,16.9 17.962,17.927 23.1,21.01"/><polygon fill="#8bb7f0" points="17.962,17.927 17.962,31.286 23.1,35.396 23.1,21.01"/><rect width="14.423" height="1.027" x="23.081" y="19.983" fill="#4e7ab5" transform="rotate(-4.031 30.312 20.51)"/><rect width="1.027" height="5.992" x="20.017" y="16.473" fill="#4e7ab5" transform="rotate(-59.036 20.53 19.468)"/><rect width="1.028" height="14.386" x="22.586" y="21.01" fill="#4e7ab5"/><path fill="#4e7ab5" d="M22.952,35.936l-5.504-4.403V17.458l11.887-1.081L38,19.626v14.16L22.952,35.936z M18.476,31.039	l4.772,3.817l13.725-1.961V20.339l-7.777-2.917l-10.719,0.974V31.039z"/><polygon fill="#ffeea3" points="5.631,37.451 21.045,35.396 21.045,20.977 5.631,22.038"/><polygon fill="#f5ce85" points="21.045,20.977 15.907,17.927 2.548,18.955 5.631,22.038"/><polygon fill="#f5ce85" points="2.548,18.955 2.548,33.341 5.631,37.451 5.631,22.038"/><rect width="15.45" height="1.028" x="5.613" y="20.993" fill="#ba9b48" transform="rotate(-3.916 13.345 21.518)"/><rect width="1.028" height="15.414" x="5.117" y="22.038" fill="#ba9b48"/><rect width="1.027" height="4.36" x="3.576" y="18.316" fill="#ba9b48" transform="rotate(-45.001 4.09 20.496)"/><path fill="#ba9b48" d="M5.4,38l-3.366-4.488V18.479l13.995-1.077l5.529,3.281v15.162L5.4,38z M3.062,33.17l2.8,3.732	l14.669-1.956V21.269l-4.746-2.817L3.062,19.431V33.17z"/><polygon fill="#bae0bd" points="23.1,2.514 17.962,4.569 17.962,15.872 23.1,18.955 37.486,17.927 37.486,2.514"/><rect width="1.028" height="16.441" x="22.586" y="2.514" fill="#5e9c76"/><path fill="#5e9c76" d="M22.974,19.479l-5.526-3.316V4.221L23.1,2H38v16.405L22.974,19.479z M18.476,15.581l4.749,2.85	l13.747-0.982V3.028H23.199l-4.723,1.889V15.581z"/><polygon fill="#f78f8f" points="5.631,2.514 2.548,4.569 2.548,16.9 5.631,19.982 21.045,18.955 21.045,2.514"/><rect width="1.028" height="17.469" x="5.117" y="2.514" fill="#c74343"/><path fill="#c74343" d="M5.432,20.511l-3.398-3.398V4.294L5.476,2h16.083v17.436L5.432,20.511z M3.062,16.687l2.768,2.767	l14.701-0.98V3.028H5.787L3.062,4.844V16.687z"/></svg>